<svg xmlns="http://www.w3.org/2000/svg" width="1201.847" height="449.902" viewBox="0 0 1201.847 449.902">
  <defs>
    <style>
      .cls-1 {
        fill: #005596;
      }

      .cls-2 {
        fill: #fff;
      }
    </style>
  </defs>
  <g id="bf-logo-mobile" transform="translate(-18.684 -72.576)">
    <path id="Path_63" data-name="Path 63" class="cls-1" d="M284.471,207.45q10.81,0,15.837-6.091a22.013,22.013,0,0,0,5.025-14.466v-10.66q0-9.9-6.4-14.01a25.487,25.487,0,0,0-14.466-4.263H272.593V207.45Zm18.73-102.94q0-9.137-5.025-12.639-5.027-3.655-14.468-3.655H272.593v44.009h12.335q8.833,0,13.553-6.852,4.721-7,4.721-17.055Zm-8.376,134.158q-11.878,0-30.759-.608t-27.107-.762H222.341V58.826h26.344q9.593,0,21.928-.609,12.334-.761,17.816-.761,17.818,0,30,2.893,12.336,2.893,19.34,8.68a32.11,32.11,0,0,1,9.9,13.4,48.724,48.724,0,0,1,3.046,18.121q0,16.142-7.462,27.715t-21.622,14.467q35.937,3.2,35.938,42.181a61.758,61.758,0,0,1-3.5,21.318,47.623,47.623,0,0,1-10.812,16.9q-7.157,7.309-19.491,11.422T294.825,238.667Zm153.108-21.624a25.864,25.864,0,0,1-3.806,5.635,70.144,70.144,0,0,1-7.31,7.766,40.915,40.915,0,0,1-11.268,7A32.455,32.455,0,0,1,412,240.494q-21.471,0-30.761-12.791-9.134-12.79-9.135-42.638V130.854l-5.331-5.482V107.86h55.278v86.8q-.155,6.853,2.283,10.2,2.436,3.2,8.833,3.2h1.675q.76-.155,1.523-.306.761-.3,1.217-.456a10.7,10.7,0,0,0,1.371-.456c.509-.3.915-.559,1.219-.762s.712-.456,1.219-.761c.507-.406.862-.712,1.066-.914q.457-.3,1.217-.913.915-.763,1.371-1.067V130.854l-8.223-5.482V107.86h58.018V237.3H452.654Zm130.285,72.638a93.767,93.767,0,0,1-29.542-4.569q-13.857-4.569-20.253-12.335l7.918-16.447q8.833,5.027,28.02,5.027a35.691,35.691,0,0,0,10.508-1.371,19.139,19.139,0,0,0,7.918-4.873,21.228,21.228,0,0,0,5.329-9.593,59.013,59.013,0,0,0,1.981-15.38v-13.1l-1.523,2.437a43.979,43.979,0,0,1-4.721,5.939,90.6,90.6,0,0,1-7.006,6.852,37.544,37.544,0,0,1-9.745,5.787,28.884,28.884,0,0,1-11.573,2.435q-22.69,0-31.979-12.639-9.289-12.79-9.289-42.942V130.854l-5.481-5.482V107.86h55.429v86.647q0,7,2.131,10.356,2.284,3.2,8.985,3.2a13.423,13.423,0,0,0,3.96-.61,19.433,19.433,0,0,0,3.806-1.979,32.868,32.868,0,0,0,4.112-3.046V130.854l-8.377-5.482V107.86h58.02V219.48q0,33.653-14.316,51.927T578.219,289.681ZM725.58,158.569q0-19.339-1.979-27.41t-7.31-8.071a14.768,14.768,0,0,0-7.462,1.675,9.18,9.18,0,0,0-4.263,5.025,27.325,27.325,0,0,0-1.827,7q-.307,3.5-.306,8.985v12.791ZM713.4,240.494q-17.055,0-29.694-5.177a47.891,47.891,0,0,1-19.8-14.466A62.166,62.166,0,0,1,653.4,199.988a94.667,94.667,0,0,1-3.35-26.039q0-34.112,17.36-51.623t48.577-17.512q30,0,42.942,14.162,12.945,14.009,12.945,45.228v16.9H702.281V184a50.049,50.049,0,0,0,1.827,14.772q1.98,5.785,5.635,8.527a20.382,20.382,0,0,0,7.462,3.654,40.356,40.356,0,0,0,9.289.914,52.125,52.125,0,0,0,11.42-1.371,60.429,60.429,0,0,0,12.487-4.264,39.321,39.321,0,0,0,10.66-6.852l8.985,15.38q-5.636,9.137-16.6,15.38a74.162,74.162,0,0,1-20.862,8.223A92.52,92.52,0,0,1,713.4,240.494Zm124.157-3.2H788.369V138.772l-9.137-5.633V115.93l32.74-8.071h12.335l4.416,36.243q6.241-37.309,40.048-37.309a24.99,24.99,0,0,1,7.918,1.371l-5.177,54.211q-3.2-2.893-14.01-2.894-15.534,0-19.949,8.224Zm91.242,3.2a93.75,93.75,0,0,1-28.932-4.721q-14.618-4.873-18.73-9.441l3.958-24.516q5.18,5.025,17.207,8.679a85.919,85.919,0,0,0,24.822,3.654q9.137,0,12.487-2.283a7.222,7.222,0,0,0,3.5-6.4q0-3.96-6.089-7.006-6.092-3.2-19.8-7.308-35.481-10.661-35.482-44.162,0-13.7,7.918-23.45a44.662,44.662,0,0,1,20.253-14.314,81.35,81.35,0,0,1,27.563-4.416q26.039,0,38.373,9.594L978.593,117l-6.7,21.776q-10.049-9.9-27.715-9.9-14.466,0-14.466,8.527a7.5,7.5,0,0,0,1.066,4.112,9.162,9.162,0,0,0,3.5,2.741q2.588,1.065,5.025,1.827,2.436.608,6.852,1.827,4.417,1.067,7.614,1.979,17.818,5.94,25.888,16.751t8.07,26.953Q987.729,240.494,928.8,240.494Z" transform="translate(232.802 66.121)"/>
    <path id="Path_64" data-name="Path 64" class="cls-1" d="M273.24,368.127h-50.4V189.656h100.5v38.832l-50.1-3.046v41.419h41.115v37.765L273.24,301.58Zm64.141,0V269.6l-9.137-5.635V247.674l32.74-8.985h25.432V368.127Zm22.08-143.447-24.974-25.126v-5.329l24.974-24.974h5.787l26.04,24.974v5.329l-26.04,25.126Zm97.148,143.447H407.424V269.6l-9.137-5.635V246.76l32.74-8.07h12.335l4.415,36.242q6.244-37.308,40.05-37.307a25.025,25.025,0,0,1,7.918,1.369l-5.177,54.212q-3.2-2.893-14.01-2.894-15.533,0-19.949,8.223Zm91.242,3.2a93.754,93.754,0,0,1-28.932-4.721q-14.621-4.873-18.73-9.441l3.958-24.518q5.177,5.025,17.208,8.681a85.971,85.971,0,0,0,24.822,3.654q9.137,0,12.487-2.283a7.227,7.227,0,0,0,3.5-6.4q0-3.96-6.092-7.006-6.089-3.2-19.8-7.31Q500.8,311.327,500.8,277.825q0-13.705,7.918-23.451a44.653,44.653,0,0,1,20.253-14.314,81.335,81.335,0,0,1,27.563-4.417q26.039,0,38.373,9.593l2.741,2.589-6.7,21.776q-10.052-9.9-27.715-9.9-14.466,0-14.466,8.527a7.519,7.519,0,0,0,1.065,4.112,9.166,9.166,0,0,0,3.5,2.74q2.588,1.067,5.025,1.829,2.437.608,6.852,1.827,4.416,1.065,7.614,1.979,17.818,5.94,25.888,16.751t8.071,26.953Q606.784,371.325,547.851,371.325Zm107.562,0q-20.555,0-28.78-12.335-8.069-12.334-8.07-41.725V265.49H608.055V244.324l17.97-5.635,15.532-35.48h26.8v35.48h24.974v26.8H667.9v56.649q0,12.182,3.5,16.141t10.812,3.958a20.493,20.493,0,0,0,5.785-.761,12.015,12.015,0,0,0,4.264-2.131v20.709a33.51,33.51,0,0,1-5.939,4.569q-3.653,2.132-12.183,4.416A71.17,71.17,0,0,1,655.413,371.325Z" transform="translate(232.204 151.153)"/>
    <path id="Path_65" data-name="Path 65" class="cls-1" d="M70.383,164.212V119.269A67.414,67.414,0,0,1,182.738,69.022a67.414,67.414,0,0,1,112.355,50.247v44.943H328.8a33.7,33.7,0,0,1,33.706,33.706V411.392a89.8,89.8,0,0,1-41,75.439l-12.262-2.155c-17.4-3.055-35.356-12.65-48.869-26.345-13.5-13.675-21.46-30.254-21.46-46.939V164.212h22.471V119.269a33.708,33.708,0,0,0-59.676-21.49,67.306,67.306,0,0,1,3.5,21.49V411.392c0,27.614,13.077,52.273,31.174,70.613a130.349,130.349,0,0,0,24.241,19.27H92.854A89.884,89.884,0,0,1,2.971,411.392V197.918a33.706,33.706,0,0,1,33.707-33.706Zm33.707-44.943v44.943H171.5V119.269a33.707,33.707,0,0,0-67.413,0Z" transform="translate(20.226 20.72)"/>
    <path id="Path_66" data-name="Path 66" class="cls-1" d="M.684,149.818a41.253,41.253,0,0,1,41.254-41.253H323.482a41.253,41.253,0,0,1,41.255,41.253V363.561a82.507,82.507,0,0,1-82.508,82.506H83.192A82.506,82.506,0,0,1,.684,363.561Z" transform="translate(18 75.93)"/>
    <path id="Path_67" data-name="Path 67" class="cls-2" d="M100.184,417.764V231.5l-44.8,4.777V185.415a217.418,217.418,0,0,0,23.267-4.3,105.9,105.9,0,0,0,19.8-7.4,53.209,53.209,0,0,0,17.821-13.85,71.5,71.5,0,0,0,12.129-21.73h54.7V417.764Z" transform="translate(71.251 104.714)"/>
  </g>
</svg>
