<svg width="64" height="64" viewBox="0 0 64 64" fill="none" xmlns="http://www.w3.org/2000/svg">
<path d="M36.2562 52.9792C34.464 49.7878 30.8044 48.2323 26.7428 49.8569C25.7172 50.2671 24.5533 49.7683 24.1431 48.7427C23.7329 47.7171 24.2317 46.5532 25.2573 46.143C31.1957 43.7677 36.9761 46.0921 39.7439 51.0207C40.2847 51.9837 39.9424 53.2029 38.9793 53.7438C38.0163 54.2846 36.7971 53.9423 36.2562 52.9792Z" fill="#004071"/>
<path d="M40.8133 23.8832C36.1386 24.9403 32.648 29.1193 32.648 34.1136C32.648 39.9063 37.3439 44.6022 43.1366 44.6022C48.9293 44.6022 53.6252 39.9063 53.6252 34.1136C53.6252 32.4775 53.2506 30.929 52.5825 29.549C52.1231 29.8348 51.5808 29.9998 51 29.9998C50.8515 29.9998 50.7049 29.9977 50.56 29.9934C51.2386 31.2135 51.6252 32.6184 51.6252 34.1136C51.6252 38.8017 47.8247 42.6022 43.1366 42.6022C38.4484 42.6022 34.648 38.8017 34.648 34.1136C34.648 29.8426 37.8022 26.3083 41.9083 25.7132C41.4604 25.109 41.0982 24.4877 40.8133 23.8832Z" fill="#004071"/>
<path d="M42 40C45.3137 40 48 37.3137 48 34C48 30.6863 45.3137 28 42 28C38.6863 28 36 30.6863 36 34C36 37.3137 38.6863 40 42 40Z" fill="#004071"/>
<path fill-rule="evenodd" clip-rule="evenodd" d="M9.52684 10.8455C14.626 5.30839 22.1904 2 31.9978 2C41.8051 2 49.3695 5.30839 54.4687 10.8455C59.543 16.3557 61.9955 23.8755 61.9955 31.9978C61.9955 40.12 59.543 47.6398 54.4687 53.15C49.3695 58.6872 41.8051 61.9955 31.9978 61.9955C22.1904 61.9955 14.626 58.6872 9.52684 53.15C4.45253 47.6398 2 40.12 2 31.9978C2 23.8755 4.45253 16.3557 9.52684 10.8455ZM6.0534 30.0416C6.01784 30.6862 6 31.3385 6 31.9978C6 39.3383 8.21191 45.8173 12.4692 50.4404C16.7018 55.0364 23.1362 57.9955 31.9978 57.9955C40.8593 57.9955 47.2938 55.0364 51.5263 50.4404C55.7836 45.8173 57.9955 39.3383 57.9955 31.9978C57.9955 25.4986 56.2616 19.6748 52.9093 15.2165C50.9802 16.5082 47.8843 18.4415 43.8599 20.4888C43.9216 20.5926 43.9654 20.7093 43.9864 20.8356C44.2632 22.4962 46.0208 26 51.0001 26C51.5523 26 52.0001 26.4477 52.0001 27C52.0001 27.5523 51.5523 28 51.0001 28C44.9684 28 42.5515 23.7728 42.0547 21.3834C37.6191 23.5239 33.0025 25.3374 28.2683 26.743C30.1126 28.6215 31.2501 31.1964 31.2501 34.0369C31.2501 39.7873 26.5886 44.4488 20.8382 44.4488C15.0879 44.4488 10.4263 39.7873 10.4263 34.0369C10.4263 32.5556 10.7356 31.1465 11.2932 29.8707C9.55109 29.9918 7.80353 30.05 6.0534 30.0416ZM13.6479 29.6687C12.8728 30.9419 12.4263 32.4373 12.4263 34.0369C12.4263 38.6827 16.1924 42.4488 20.8382 42.4488C25.484 42.4488 29.2501 38.6827 29.2501 34.0369C29.2501 31.3315 27.973 28.9244 25.9887 27.3856C25.0307 27.6413 24.0685 27.88 23.1024 28.1011C25.8896 28.6187 28 31.0629 28 34C28 37.3137 25.3137 40 22 40C18.6863 40 16 37.3137 16 34C16 31.8982 17.0807 30.0488 18.7168 28.9772C17.0353 29.264 15.3448 29.4956 13.6479 29.6687ZM6.51911 26.0423C27.0111 26.0003 43.902 16.35 50.1859 12.2228C48.6107 10.7899 46.7833 9.55772 44.6948 8.57682C34.8455 17.0949 19.9701 21.485 7.87607 21.1023C7.28519 22.664 6.83195 24.3162 6.51911 26.0423ZM34.351 13.0417C37.3314 11.5316 40.1286 9.75184 42.613 7.71526C39.5635 6.61334 36.0322 6 31.9978 6C26.5922 6 22.0897 7.10112 18.4393 9.00323C19.7294 9.0788 21.0929 9.20101 22.4806 9.3836C26.5766 9.92256 30.9925 11.001 34.351 13.0417ZM22.2197 11.3665C19.7718 11.0444 17.4019 10.9176 15.4088 10.9037C14.3317 11.7082 13.3525 12.596 12.4692 13.5552C10.9615 15.1925 9.71023 17.0626 8.72296 19.1213C16.1589 19.225 24.6042 17.4877 32.1335 14.101C29.2818 12.6733 25.713 11.8262 22.2197 11.3665Z" fill="#004071"/>
</svg>
