<svg width="64" height="64" viewBox="0 0 64 64" fill="none" xmlns="http://www.w3.org/2000/svg">
<path d="M23.2425 18.0299C23.7783 18.1638 24.1041 18.7067 23.9701 19.2425C23.4203 21.4419 22.3004 23.1544 20.7132 24.3087C19.1335 25.4576 17.1653 26 15 26C14.4477 26 14 25.5523 14 25C14 24.4477 14.4477 24 15 24C16.8347 24 18.3665 23.5424 19.5368 22.6913C20.6996 21.8456 21.5797 20.5581 22.0299 18.7575C22.1638 18.2217 22.7067 17.8959 23.2425 18.0299Z" fill="#004071"/>
<path d="M12.5858 32.5858C11.8047 33.3668 11.8047 34.6332 12.5858 35.4142C13.6351 36.4636 16.2804 38 20 38C23.7196 38 26.3649 36.4636 27.4142 35.4142C28.1953 34.6332 28.1953 33.3668 27.4142 32.5858C26.6332 31.8047 25.3668 31.8047 24.5858 32.5858C24.3018 32.8698 22.6804 34 20 34C17.3196 34 15.6982 32.8698 15.4142 32.5858C14.6332 31.8047 13.3668 31.8047 12.5858 32.5858Z" fill="#004071"/>
<path d="M39.4142 32.5858C38.6332 31.8047 37.3668 31.8047 36.5858 32.5858C35.8047 33.3668 35.8047 34.6332 36.5858 35.4142C37.6351 36.4636 40.2804 38 44 38C47.7196 38 50.3649 36.4636 51.4142 35.4142C52.1953 34.6332 52.1953 33.3668 51.4142 32.5858C50.6332 31.8047 49.3668 31.8047 48.5858 32.5858C48.3018 32.8698 46.6804 34 44 34C41.3196 34 39.6982 32.8698 39.4142 32.5858Z" fill="#004071"/>
<path d="M40.0301 19.2425C39.8962 18.7067 40.2219 18.1638 40.7577 18.0299C41.2935 17.8959 41.8364 18.2217 41.9704 18.7575C42.4205 20.5581 43.3006 21.8456 44.4634 22.6913C45.6337 23.5424 47.1656 24 49.0002 24C49.5525 24 50.0002 24.4477 50.0002 25C50.0002 25.5523 49.5525 26 49.0002 26C46.8349 26 44.8668 25.4576 43.2871 24.3087C41.6999 23.1544 40.5799 21.4419 40.0301 19.2425Z" fill="#004071"/>
<path d="M26 48H38C39.1046 48 40 48.8954 40 50C40 51.1046 39.1046 52 38 52H26C24.8954 52 24 51.1046 24 50C24 48.8954 24.8954 48 26 48Z" fill="#004071"/>
<path d="M31.9978 2C22.1904 2 14.626 5.30839 9.52684 10.8455C4.45253 16.3557 2 23.8755 2 31.9978C2 40.12 4.45253 47.6398 9.52684 53.15C14.626 58.6871 22.1904 61.9955 31.9978 61.9955C41.8051 61.9955 49.3695 58.6871 54.4687 53.15C59.543 47.6398 61.9955 40.12 61.9955 31.9978C61.9955 23.8755 59.543 16.3557 54.4687 10.8455C49.3695 5.30839 41.8051 2 31.9978 2ZM6 31.9978C6 24.6573 8.2119 18.1782 12.4692 13.5552C16.7018 8.95913 23.1362 6 31.9978 6C40.8593 6 47.2938 8.95913 51.5263 13.5552C55.7836 18.1782 57.9955 24.6573 57.9955 31.9978C57.9955 39.3383 55.7836 45.8173 51.5263 50.4403C47.2938 55.0364 40.8593 57.9955 31.9978 57.9955C23.1362 57.9955 16.7018 55.0364 12.4692 50.4403C8.2119 45.8173 6 39.3383 6 31.9978Z" fill="#004071"/>
</svg>
