<svg width="64" height="64" viewBox="0 0 64 64" fill="none" xmlns="http://www.w3.org/2000/svg">
<path d="M11.9156 26.9514C12.6024 22.596 16.5871 19.1577 20.974 20.114L20.9769 20.1146C24.5183 20.8812 26.7714 24.3773 26.0053 27.9168C25.4392 30.5346 22.8656 32.1922 20.2427 31.6251C18.3645 31.219 17.1697 29.3664 17.574 27.4864C17.7368 26.7513 18.0842 26.3124 18.4414 26.0768C18.7908 25.8462 19.3029 25.7082 20.005 25.8522C20.0171 25.861 20.0403 25.8808 20.0726 25.9203C20.1554 26.0218 20.2334 26.1812 20.2672 26.3541L20.2732 26.3872C19.4386 26.8224 19.0036 27.802 19.2849 28.7365C19.6033 29.7941 20.7189 30.3934 21.7766 30.075C22.8643 29.7475 23.6051 28.9813 23.9792 28.0837C24.3299 27.2422 24.3419 26.3476 24.1927 25.5856C23.9151 24.1673 22.8603 22.3663 20.8533 21.9431C19.2063 21.5944 17.5754 21.856 16.2386 22.738C14.9064 23.6169 14.0243 25.007 13.6668 26.6295L13.6652 26.6372C12.7919 30.6759 15.3567 34.6611 19.3973 35.5347C24.1744 36.5676 28.8808 33.5447 29.9148 28.7626C31.1482 23.0631 27.5228 17.4405 21.826 16.2058C14.6528 14.6421 8.91758 20.2838 7.9644 26.3284C7.79234 27.4194 8.53737 28.4434 9.62845 28.6155C10.7195 28.7875 11.7435 28.0425 11.9156 26.9514ZM19.9957 25.8463C19.9957 25.8463 19.9955 25.8462 19.9957 25.8463Z" fill="#004071"/>
<path d="M28.1213 43.2929C26.9497 42.1213 25.0503 42.1213 23.8787 43.2929L20 47.1716L16.4142 43.5858C15.6332 42.8047 14.3668 42.8047 13.5858 43.5858C12.8047 44.3668 12.8047 45.6332 13.5858 46.4142L17.8787 50.7071C19.0503 51.8787 20.9497 51.8787 22.1213 50.7071L26 46.8284L29.8787 50.7071C31.0503 51.8787 32.9497 51.8787 34.1213 50.7071L38 46.8284L41.8787 50.7071C43.0503 51.8787 44.9497 51.8787 46.1213 50.7071L50.4142 46.4142C51.1953 45.6332 51.1953 44.3668 50.4142 43.5858C49.6332 42.8047 48.3668 42.8047 47.5858 43.5858L44 47.1716L40.1213 43.2929C38.9497 42.1213 37.0503 42.1213 35.8787 43.2929L32 47.1716L28.1213 43.2929Z" fill="#004071"/>
<path d="M42.9657 20.114C47.3526 19.1577 51.3373 22.596 52.0241 26.9514C52.1962 28.0425 53.2202 28.7875 54.3112 28.6155C55.4023 28.4434 56.1474 27.4194 55.9753 26.3284C55.0221 20.2838 49.2869 14.6421 42.1137 16.2058C36.4169 17.4405 32.7915 23.0631 34.0249 28.7626C35.0589 33.5447 39.7653 36.5676 44.5424 35.5347C48.583 34.6611 51.1478 30.6759 50.2745 26.6372L50.2729 26.6295C49.9153 25.007 49.0333 23.6169 47.7011 22.738C46.3643 21.856 44.7334 21.5944 43.0863 21.9431C41.0794 22.3663 40.0246 24.1673 39.747 25.5856C39.5978 26.3476 39.6098 27.2422 39.9605 28.0837C40.3346 28.9813 41.0754 29.7475 42.1631 30.075C43.2208 30.3934 44.3364 29.7941 44.6548 28.7365C44.9361 27.802 44.5011 26.8224 43.6665 26.3872L43.6725 26.3541C43.7063 26.1812 43.7843 26.0218 43.8671 25.9203C43.8993 25.8808 43.9226 25.861 43.9347 25.8522C44.6368 25.7082 45.1488 25.8462 45.4983 26.0768C45.8555 26.3124 46.2029 26.7513 46.3657 27.4864C46.77 29.3664 45.5752 31.219 43.697 31.6251C41.0741 32.1922 38.5006 30.535 37.9345 27.9172C37.1684 24.3778 39.4214 20.8812 42.9628 20.1146L42.9657 20.114ZM43.9443 25.8462C43.9449 25.8459 43.9443 25.8461 43.9443 25.8462Z" fill="#004071"/>
<path d="M31.9978 2C22.1904 2 14.626 5.30839 9.52684 10.8455C4.45253 16.3557 2 23.8755 2 31.9978C2 40.12 4.45253 47.6398 9.52684 53.15C14.626 58.6871 22.1904 61.9955 31.9978 61.9955C41.8051 61.9955 49.3695 58.6871 54.4687 53.15C59.543 47.6398 61.9955 40.12 61.9955 31.9978C61.9955 23.8755 59.543 16.3557 54.4687 10.8455C49.3695 5.30839 41.8051 2 31.9978 2ZM6 31.9978C6 24.6573 8.2119 18.1782 12.4692 13.5552C16.7018 8.95913 23.1362 6 31.9978 6C40.8593 6 47.2938 8.95913 51.5263 13.5552C55.7836 18.1782 57.9955 24.6573 57.9955 31.9978C57.9955 39.3383 55.7836 45.8173 51.5263 50.4403C47.2938 55.0364 40.8593 57.9955 31.9978 57.9955C23.1362 57.9955 16.7018 55.0364 12.4692 50.4403C8.2119 45.8173 6 39.3383 6 31.9978Z" fill="#004071"/>
</svg>
