<svg width="64" height="64" viewBox="0 0 64 64" fill="none" xmlns="http://www.w3.org/2000/svg">
<path d="M48 36C45.7909 36 44 37.7909 44 40V46C44 48.2091 45.7909 50 48 50C50.2091 50 52 48.2091 52 46V40C52 37.7909 50.2091 36 48 36Z" fill="#004071"/>
<path d="M22 32.875C24.2091 32.875 26 31.0841 26 28.875C26 26.6659 24.2091 24.875 22 24.875C19.7909 24.875 18 26.6659 18 28.875C18 31.0841 19.7909 32.875 22 32.875Z" fill="#004071"/>
<path d="M20.8382 39.3239C26.5886 39.3239 31.2501 34.6623 31.2501 28.9119C31.2501 23.1616 26.5886 18.5 20.8382 18.5C15.0878 18.5 10.4263 23.1616 10.4263 28.9119C10.4263 34.6623 15.0878 39.3239 20.8382 39.3239ZM20.8382 37.3239C16.1924 37.3239 12.4263 33.5577 12.4263 28.9119C12.4263 24.2661 16.1924 20.5 20.8382 20.5C25.484 20.5 29.2501 24.2661 29.2501 28.9119C29.2501 33.5577 25.484 37.3239 20.8382 37.3239Z" fill="#004071"/>
<path d="M51.5931 35.1944C52.8705 33.4566 53.6252 31.3108 53.6252 28.9886C53.6252 23.1959 48.9293 18.5 43.1366 18.5C37.3439 18.5 32.6479 23.1959 32.6479 28.9886C32.6479 34.4068 36.7563 38.8654 42.0277 39.4193C42.0945 38.7241 42.2799 38.0636 42.5634 37.4582C38.1426 37.1635 34.6479 33.4841 34.6479 28.9886C34.6479 24.3005 38.4484 20.5 43.1366 20.5C47.8247 20.5 51.6252 24.3005 51.6252 28.9886C51.6252 30.9847 50.9362 32.8199 49.783 34.2694C50.4424 34.4743 51.053 34.7899 51.5931 35.1944Z" fill="#004071"/>
<path d="M42 32.875C44.2091 32.875 46 31.0841 46 28.875C46 26.6659 44.2091 24.875 42 24.875C39.7909 24.875 38 26.6659 38 28.875C38 31.0841 39.7909 32.875 42 32.875Z" fill="#004071"/>
<path d="M24.5134 44.6621C25.2523 43.8411 26.5169 43.7745 27.3379 44.5134C28.3713 45.4434 30.0917 46.025 32 46.025C33.9084 46.025 35.6288 45.4434 36.6621 44.5134C37.4831 43.7745 38.7477 43.8411 39.4866 44.6621C40.2255 45.4831 40.159 46.7477 39.3379 47.4866C37.3713 49.2566 34.5917 50.025 32 50.025C29.4084 50.025 26.6288 49.2566 24.6621 47.4866C23.8411 46.7477 23.7745 45.4831 24.5134 44.6621Z" fill="#004071"/>
<path d="M9.52684 10.8455C14.626 5.30839 22.1904 2 31.9978 2C41.8051 2 49.3695 5.30839 54.4687 10.8455C59.543 16.3557 61.9955 23.8755 61.9955 31.9978C61.9955 40.12 59.543 47.6398 54.4687 53.15C49.3695 58.6871 41.8051 61.9955 31.9978 61.9955C22.1904 61.9955 14.626 58.6871 9.52684 53.15C4.45253 47.6398 2 40.12 2 31.9978C2 23.8755 4.45253 16.3557 9.52684 10.8455ZM12.4692 13.5552C8.2119 18.1782 6 24.6573 6 31.9978C6 39.3383 8.2119 45.8173 12.4692 50.4403C16.7018 55.0364 23.1362 57.9955 31.9978 57.9955C40.8593 57.9955 47.2938 55.0364 51.5263 50.4403C55.7836 45.8173 57.9955 39.3383 57.9955 31.9978C57.9955 24.6573 55.7836 18.1782 51.5263 13.5552C47.2938 8.95913 40.8593 6 31.9978 6C23.1362 6 16.7018 8.95913 12.4692 13.5552Z" fill="#004071"/>
</svg>
