<svg width="64" height="64" viewBox="0 0 64 64" fill="none" xmlns="http://www.w3.org/2000/svg">
<path d="M9.52684 10.8455C10.3098 9.99528 11.1509 9.19759 12.0494 8.45635C11.8776 9.39349 12.154 10.3967 12.8787 11.1213C13.2554 11.4981 13.7075 11.7537 14.1864 11.8881C13.5783 12.4157 13.0061 12.9723 12.4692 13.5552C8.2119 18.1782 6 24.6573 6 31.9978C6 36.3063 6.76203 40.318 8.25242 43.8319C7.08183 44.7968 6.15148 46.0071 5.47673 47.3305C3.14101 42.7976 2 37.5378 2 31.9978C2 23.8755 4.45253 16.3557 9.52684 10.8455Z" fill="#004071"/>
<path d="M20 4L19.894 4.00059C23.4382 2.70204 27.48 2 31.9978 2C41.8051 2 49.3695 5.30839 54.4687 10.8455C59.543 16.3557 61.9955 23.8755 61.9955 31.9978C61.9955 40.12 59.543 47.6398 54.4687 53.15C49.3695 58.6871 41.8051 61.9955 31.9978 61.9955C31.0834 61.9955 30.1886 61.9668 29.3134 61.9101C29.7483 61.2204 30 60.4035 30 59.5279C30 59.0791 29.9328 58.6405 29.8059 58.2242C29.9217 58.1391 30.0329 58.0479 30.139 57.9509C30.7463 57.9805 31.3659 57.9955 31.9978 57.9955C40.8593 57.9955 47.2938 55.0364 51.5263 50.4403C55.7836 45.8173 57.9955 39.3383 57.9955 31.9978C57.9955 24.6573 55.7836 18.1782 51.5263 13.5552C47.2938 8.95913 40.8593 6 31.9978 6C30.0829 6 28.2814 6.13817 26.5909 6.40118C25.3179 5.35551 22.9428 4 20 4Z" fill="#004071"/>
<path d="M28 59.5279C28 60.4374 27.5088 61.2322 26.7773 61.6615C26.4107 61.8766 25.9836 62 25.5278 62H19.9999C19.8366 62 19.6704 62.0006 19.5014 62.0012L19.4992 62.0012C16.5627 62.0117 12.7814 62.0253 8.99989 59C3.99998 55 5.99969 46 11.9999 44C13.6702 43.4433 14.0466 39.8404 14.0863 37.1175C14.1108 35.4362 15.4397 34 17.1212 34C18.7111 34 19.9999 35.2888 19.9999 36.8786V43H31.4999C32.8806 43 33.9999 44.1193 33.9999 45.5C33.9999 46.8807 32.8806 48 31.4999 48H27.9999L28.6582 48.3292C29.4805 48.7403 29.9999 49.5807 29.9999 50.5C29.9999 51.4193 29.4805 52.2597 28.6582 52.6708L27.9999 53C29.0158 53 29.7612 53.9547 29.5149 54.9403L29.3787 55.485C29.1561 56.3754 28.3562 57 27.4384 57H25.9999L26.6333 57.3167C26.8297 57.4149 27.0092 57.5371 27.1688 57.6788C27.2663 57.7653 27.3565 57.8591 27.4385 57.9591C27.6785 58.2515 27.8498 58.5969 27.9361 58.9691C27.9781 59.15 28 59.3373 28 59.5279Z" fill="#004071"/>
<path d="M27.4142 39.4142C28.124 38.7044 29.8226 37.5714 32.163 37.9715C34.6041 38.3888 35.6246 39.6331 36.186 40.8422C36.6511 41.8441 37.8404 42.2792 38.8422 41.814C39.8441 41.3488 40.2792 40.1596 39.814 39.1577C38.7849 36.9412 36.763 34.6998 32.837 34.0287C28.8103 33.3403 25.876 35.2957 24.5858 36.5858C23.8048 37.3668 23.8047 38.6331 24.5858 39.4142C25.3668 40.1953 26.6331 40.1953 27.4142 39.4142Z" fill="#004071"/>
<path d="M32.6479 24.1136C32.6479 22.0037 33.271 20.0393 34.3431 18.3943C34.4397 18.5781 34.5571 18.7546 34.6954 18.9206C35.0155 19.3047 35.4113 19.5885 35.8428 19.7685C35.084 21.0396 34.6479 22.5257 34.6479 24.1136C34.6479 28.8018 38.4484 32.6022 43.1366 32.6022C47.8247 32.6022 51.6252 28.8018 51.6252 24.1136C51.6252 22.4843 51.1662 20.9622 50.3704 19.6696C50.719 19.4909 51.0381 19.2405 51.3047 18.9206C51.5021 18.6838 51.6567 18.4256 51.7696 18.1553C52.9398 19.8475 53.6252 21.9005 53.6252 24.1136C53.6252 29.9063 48.9293 34.6022 43.1366 34.6022C37.3439 34.6022 32.6479 29.9063 32.6479 24.1136Z" fill="#004071"/>
<path d="M20 27C22.2091 27 24 25.2091 24 23C24 20.7909 22.2091 19 20 19C17.7909 19 16 20.7909 16 23C16 25.2091 17.7909 27 20 27Z" fill="#004071"/>
<path d="M31.2501 24.0369C31.2501 29.7873 26.5886 34.4489 20.8382 34.4489C15.0878 34.4489 10.4263 29.7873 10.4263 24.0369C10.4263 18.2866 15.0878 13.625 20.8382 13.625C26.5886 13.625 31.2501 18.2866 31.2501 24.0369ZM29.2501 24.0369C29.2501 19.3911 25.484 15.625 20.8382 15.625C16.1924 15.625 12.4263 19.3911 12.4263 24.0369C12.4263 28.6827 16.1924 32.4489 20.8382 32.4489C25.484 32.4489 29.2501 28.6827 29.2501 24.0369Z" fill="#004071"/>
<path d="M46 23C46 25.2091 44.2091 27 42 27C39.7909 27 38 25.2091 38 23C38 20.7909 39.7909 19 42 19C44.2091 19 46 20.7909 46 23Z" fill="#004071"/>
<path d="M20 6C17.2602 6 15.0868 7.49903 14.2929 8.29289C13.9024 8.68342 13.9024 9.31658 14.2929 9.70711C14.6834 10.0976 15.3166 10.0976 15.7071 9.70711C16.2466 9.16764 17.9398 8 20 8C22.0602 8 23.7534 9.16764 24.2929 9.70711C24.6834 10.0976 25.3166 10.0976 25.7071 9.70711C26.0976 9.31658 26.0976 8.68342 25.7071 8.29289C24.9132 7.49903 22.7398 6 20 6Z" fill="#004071"/>
<path d="M43 14C39.8405 14 37.3011 15.4474 36.3598 16.2318C35.9355 16.5853 35.8782 17.2159 36.2318 17.6402C36.5853 18.0645 37.2159 18.1218 37.6402 17.7682C38.2989 17.2193 40.3995 16 43 16C45.6005 16 47.7011 17.2193 48.3598 17.7682C48.7841 18.1218 49.4147 18.0645 49.7682 17.6402C50.1218 17.2159 50.0645 16.5853 49.6402 16.2318C48.6989 15.4474 46.1595 14 43 14Z" fill="#004071"/>
</svg>
