<svg width="64" height="64" viewBox="0 0 64 64" fill="none" xmlns="http://www.w3.org/2000/svg">
<path d="M18.2319 29.2789C18.5305 28.9879 19.0085 28.9941 19.2994 29.2927L20.3218 30.342C21.4581 29.4873 22.5812 29.4186 23.4763 29.6515C23.9743 29.781 24.377 29.9964 24.6529 30.1756C24.792 30.2661 24.9026 30.3497 24.9808 30.413C25.0201 30.4448 25.0515 30.4717 25.0746 30.4921L25.1031 30.5178L25.1127 30.5266L25.1163 30.53L25.1178 30.5314C25.1181 30.5317 25.1191 30.5327 24.6018 31.0763L25.1178 30.5314C25.4198 30.8188 25.433 31.2979 25.1456 31.5999C24.8595 31.9007 24.3844 31.9137 24.0822 31.6301L24.0755 31.6241C24.0674 31.6169 24.0523 31.6039 24.0308 31.5865C23.9875 31.5515 23.9195 31.4996 23.8302 31.4416C23.6492 31.324 23.3957 31.1906 23.0961 31.1126C22.5478 30.97 21.746 30.9799 20.8125 31.9134C19.8784 32.8474 19.8761 33.637 20.0201 34.1704C20.0992 34.4637 20.2335 34.7116 20.3521 34.8889C20.4105 34.9762 20.4627 35.0427 20.4979 35.085C20.512 35.1019 20.5233 35.1148 20.5309 35.1232C20.5385 35.1299 20.5497 35.1395 20.5644 35.1516C20.6035 35.1835 20.6658 35.2313 20.7481 35.2847C20.915 35.3931 21.1501 35.5152 21.4304 35.5837C21.9381 35.7078 22.7188 35.6919 23.6649 34.7458C24.3162 34.0945 24.9945 33.7224 25.6657 33.5634C26.334 33.4051 26.9477 33.4692 27.4568 33.6171C27.9619 33.7639 28.3717 33.9948 28.6522 34.1847C28.7938 34.2805 28.9063 34.3685 28.9857 34.4348C29.0256 34.468 29.0574 34.4959 29.0807 34.517L29.1093 34.5433L29.1187 34.5523L29.1222 34.5556L29.1236 34.557C29.124 34.5573 29.1249 34.5582 28.5987 35.0996C29.1801 34.618 29.1804 34.6184 29.1807 34.6187L29.1826 34.621L29.1857 34.6248L29.1936 34.6347L29.2161 34.6635C29.2339 34.6867 29.257 34.7179 29.284 34.7565C29.3379 34.8337 29.4081 34.9419 29.4829 35.0775C29.6314 35.3467 29.8042 35.736 29.8953 36.2131C30.0559 37.0552 29.9455 38.1006 29.1562 39.1551L30.3357 40.3488C30.6288 40.6454 30.6259 41.1234 30.3293 41.4164C30.0328 41.7094 29.5548 41.7066 29.2618 41.41L28.0903 40.2244C27.0266 41.0255 25.9684 41.132 25.1185 40.9654C24.6395 40.8714 24.2484 40.696 23.9779 40.5458C23.8417 40.4701 23.7329 40.3992 23.6554 40.3448C23.6166 40.3176 23.5853 40.2943 23.5621 40.2765L23.5332 40.254L23.5234 40.246L23.5196 40.2429L23.518 40.2416C23.5177 40.2413 23.5166 40.2404 23.9987 39.6596L23.518 40.2416C23.1972 39.9753 23.1516 39.4982 23.4179 39.1774C23.6828 38.8582 24.1555 38.8128 24.4762 39.0748L24.4813 39.0788C24.4885 39.0843 24.5022 39.0946 24.5222 39.1087C24.5624 39.1368 24.6264 39.179 24.7108 39.2258C24.8816 39.3207 25.123 39.4277 25.409 39.4838C25.9391 39.5877 26.7111 39.5396 27.5849 38.6658C28.4614 37.7893 28.5122 37.0199 28.4122 36.496C28.3582 36.2131 28.2536 35.9749 28.1608 35.8066C28.1149 35.7234 28.0737 35.6604 28.0462 35.621L28.0399 35.6121L28.019 35.5944C27.9726 35.5557 27.9002 35.4989 27.8059 35.435C27.6146 35.3055 27.3481 35.1578 27.0356 35.067C26.7273 34.9774 26.3822 34.9453 26.0137 35.0326C25.6479 35.1192 25.2112 35.3347 24.7325 35.8134C23.4186 37.1272 22.0993 37.3013 21.0721 37.0504C20.5849 36.9314 20.1937 36.7248 19.9262 36.5513C19.7914 36.4637 19.6844 36.3823 19.6086 36.3203C19.5706 36.2892 19.5401 36.2627 19.5175 36.2425L19.4895 36.2169L19.4799 36.2079L19.4763 36.2045L19.4747 36.203C19.4744 36.2027 19.4734 36.2017 19.9987 35.6596C19.4601 36.1876 19.4593 36.1877 19.459 36.1874L19.4569 36.1852L19.4535 36.1817L19.4445 36.1722L19.4184 36.1441C19.3977 36.1213 19.3704 36.0904 19.3382 36.0517C19.274 35.9747 19.1891 35.8657 19.0972 35.7284C18.9152 35.4562 18.6958 35.058 18.5624 34.5637C18.321 33.6691 18.3885 32.5468 19.2523 31.4078L18.2181 30.3464C17.9271 30.0477 17.9333 29.5698 18.2319 29.2789Z" fill="#004071"/>
<path d="M19.9987 35.6596L19.4747 36.203L19.459 36.1874L19.9987 35.6596Z" fill="#004071"/>
<path d="M28.5987 35.0996L29.1236 34.557L29.1541 34.5866L29.1807 34.6187L28.5987 35.0996Z" fill="#004071"/>
<path d="M22.7064 51.9154L22.6845 51.8937L7.70452 36.9137C5.56347 34.7726 5.56347 31.2863 7.70452 29.1452L16.0435 20.8193H13.2786C11.2865 20.8193 9.6684 19.2668 9.564 17.3015C9.03135 17.1771 8.54334 16.9387 8.12686 16.6134C8.75777 17.1062 9.55284 17.3993 10.4185 17.3993H17.7985V16.7118H10.4185C8.63331 16.7118 7.14849 15.4652 6.78414 13.7918C7.07054 13.8621 7.37015 13.8993 7.67873 13.8993H16.9325V13.2118L8.34613 13.2118C6.21822 13.2118 4.45635 11.909 4.08203 10.1794L22.0186 10.1794C23.3254 10.1794 24.523 10.6471 25.4532 11.4243L33.2845 3.60523C35.4257 1.46529 38.9123 1.46455 41.0529 3.60523L44.7895 7.34675C44.838 7.39189 44.8858 7.43802 44.933 7.48515L59.913 22.4651C62.0415 24.5937 62.0265 28.08 59.8929 30.2136L50.3238 39.7827C50.6665 40.489 50.8587 41.2818 50.8587 42.1195L50.8587 60.056C49.1291 59.6818 47.8262 57.9199 47.8262 55.7919V47.4994H47.1387V56.7532C47.1387 56.9529 47.1543 57.1489 47.1844 57.3399C45.5423 56.9528 44.3262 55.4827 44.3262 53.7195V46.3395H43.6387V53.7195C43.6387 54.0138 43.6726 54.2998 43.7367 54.5741C41.7667 54.4699 40.1471 52.8517 40.1471 50.8595V49.9594L34.333 55.7736C32.1919 57.9146 28.7056 57.9146 26.5645 55.7736L22.712 51.9209L22.7064 51.9154ZM36.1129 6.43366L27.3659 15.167C27.3743 15.2901 27.3786 15.4142 27.3786 15.5394C27.3786 15.8323 27.3551 16.1196 27.3099 16.3995L30.9584 20.048C31.8535 17.3253 34.4165 15.3596 37.4387 15.3596C41.2053 15.3596 44.2587 18.413 44.2587 22.1796C44.2587 25.2017 42.2929 27.7648 39.5703 28.6598L43.8001 32.8897L53.1845 23.5052C53.6911 22.9987 53.7544 22.2205 53.3745 21.646C53.3202 21.5639 53.2559 21.4851 53.1836 21.4127L38.2243 6.43346C37.6453 5.85471 36.6918 5.85478 36.1129 6.43366ZM20.4797 22.0425L10.5329 31.9737C9.95439 32.5527 9.95413 33.5064 10.5329 34.0852L25.5129 49.0652C25.8124 49.3647 26.212 49.5092 26.6083 49.4989C26.8824 49.4918 27.1548 49.4106 27.3913 49.2552C27.4739 49.2009 27.5522 49.1376 27.6245 49.0652L37.5635 39.1263L20.4797 22.0425Z" fill="#004071"/>
</svg>
